<?xml version="1.0" encoding="UTF-8" standalone="no"?>
<!-- Created with Inkscape (http://www.inkscape.org/) -->

<svg
   xmlns:dc="http://purl.org/dc/elements/1.1/"
   xmlns:cc="http://creativecommons.org/ns#"
   xmlns:rdf="http://www.w3.org/1999/02/22-rdf-syntax-ns#"
   xmlns:svg="http://www.w3.org/2000/svg"
   xmlns="http://www.w3.org/2000/svg"
   xmlns:sodipodi="http://sodipodi.sourceforge.net/DTD/sodipodi-0.dtd"
   xmlns:inkscape="http://www.inkscape.org/namespaces/inkscape"
   width="210mm"
   height="297mm"
   viewBox="0 0 210 297"
   version="1.1"
   id="svg4838"
   inkscape:version="0.92.0 r15299"
   sodipodi:docname="four_red.svg">
  <defs
     id="defs4832" />
  <sodipodi:namedview
     id="base"
     pagecolor="#ffffff"
     bordercolor="#666666"
     borderopacity="1.0"
     inkscape:pageopacity="0.0"
     inkscape:pageshadow="2"
     inkscape:zoom="0.35"
     inkscape:cx="400"
     inkscape:cy="560"
     inkscape:document-units="mm"
     inkscape:current-layer="layer1"
     showgrid="false"
     inkscape:window-width="1368"
     inkscape:window-height="849"
     inkscape:window-x="-8"
     inkscape:window-y="-8"
     inkscape:window-maximized="1" />
  <metadata
     id="metadata4835">
    <rdf:RDF>
      <cc:Work
         rdf:about="">
        <dc:format>image/svg+xml</dc:format>
        <dc:type
           rdf:resource="http://purl.org/dc/dcmitype/StillImage" />
        <dc:title></dc:title>
      </cc:Work>
    </rdf:RDF>
  </metadata>
  <g
     inkscape:label="Livello 1"
     inkscape:groupmode="layer"
     id="layer1">
    <g
       transform="matrix(3.4706484,0,0,3.2881042,-831.61971,-1091.5949)"
       id="g6587">
      <rect
         width="60"
         height="90"
         rx="10"
         ry="10"
         x="240"
         y="332.36218"
         id="rect2987-8-5-0"
         style="fill:#ffffff;fill-opacity:1;fill-rule:evenodd;stroke:#000000;stroke-width:0.5;stroke-miterlimit:4;stroke-dasharray:none" />
      <rect
         width="50"
         height="80"
         rx="5"
         ry="5"
         x="245"
         y="337.36218"
         id="rect3757-26-33-8"
         style="fill:#ff5555;fill-opacity:1;fill-rule:evenodd;stroke:none" />
      <path
         inkscape:connector-curvature="0"
         d="m 285,352.36217 c -22.09139,0 -40,17.90861 -40,40 0,5.52285 4.47715,10 10,10 22.09139,0 40,-17.90861 40,-40 0,-5.52285 -4.47715,-10 -10,-10 z"
         id="path3773-0-4-8-4-60-3-8"
         style="fill:#ffffff;fill-opacity:1;fill-rule:evenodd;stroke:none" />
      <path
         inkscape:connector-curvature="0"
         d="M 268.80001,362.36219 259,382.36217 v 5 h 12 v 5.00002 h 5 v -5.00002 h 3 v -5 h -3 v -9.99997 h -5 v 9.99997 h -6.8 l 9.8,-19.99998 z"
         id="rect3980-7-6-2-9-5-60-2"
         style="fill:#ff5555;fill-opacity:1;stroke:none" />
      <path
         inkscape:connector-curvature="0"
         d="m 252.3,339.86217 -4.9,10 v 2.50001 h 6 v 2.50001 h 2.5 v -2.50001 h 1.5 v -2.50001 h -1.5 v -4.99999 h -2.5 v 4.99999 H 250 l 4.9,-10 z"
         id="rect3980-7-6-2-9-5-60-5-3"
         style="fill:#ffffff;fill-opacity:1;stroke:none" />
      <path
         inkscape:connector-curvature="0"
         d="m 287.5,414.86217 4.9,-10 v -2.50001 h -6 v -2.50001 h -2.5 v 2.50001 h -1.5 v 2.50001 h 1.5 v 4.99999 h 2.5 v -4.99999 h 3.4 l -4.9,10 z"
         id="rect3980-7-6-2-9-5-60-5-3-9"
         style="fill:#ffffff;fill-opacity:1;stroke:none" />
    </g>
  </g>
</svg>
