<?xml version="1.0" encoding="UTF-8" standalone="no"?>
<!-- Created with Inkscape (http://www.inkscape.org/) -->

<svg
   xmlns:dc="http://purl.org/dc/elements/1.1/"
   xmlns:cc="http://creativecommons.org/ns#"
   xmlns:rdf="http://www.w3.org/1999/02/22-rdf-syntax-ns#"
   xmlns:svg="http://www.w3.org/2000/svg"
   xmlns="http://www.w3.org/2000/svg"
   xmlns:sodipodi="http://sodipodi.sourceforge.net/DTD/sodipodi-0.dtd"
   xmlns:inkscape="http://www.inkscape.org/namespaces/inkscape"
   width="210mm"
   height="297mm"
   viewBox="0 0 210 297"
   version="1.1"
   id="svg5128"
   inkscape:version="0.92.0 r15299"
   sodipodi:docname="reverse_red.svg">
  <defs
     id="defs5122" />
  <sodipodi:namedview
     id="base"
     pagecolor="#ffffff"
     bordercolor="#666666"
     borderopacity="1.0"
     inkscape:pageopacity="0.0"
     inkscape:pageshadow="2"
     inkscape:zoom="0.35"
     inkscape:cx="400"
     inkscape:cy="560"
     inkscape:document-units="mm"
     inkscape:current-layer="layer1"
     showgrid="false"
     inkscape:window-width="1368"
     inkscape:window-height="849"
     inkscape:window-x="-8"
     inkscape:window-y="-8"
     inkscape:window-maximized="1" />
  <metadata
     id="metadata5125">
    <rdf:RDF>
      <cc:Work
         rdf:about="">
        <dc:format>image/svg+xml</dc:format>
        <dc:type
           rdf:resource="http://purl.org/dc/dcmitype/StillImage" />
        <dc:title></dc:title>
      </cc:Work>
    </rdf:RDF>
  </metadata>
  <g
     inkscape:label="Livello 1"
     inkscape:groupmode="layer"
     id="layer1">
    <g
       transform="matrix(3.4832327,0,0,3.2796948,-2298.3532,-1088.7994)"
       id="g6643">
      <rect
         width="60"
         height="90"
         rx="10"
         ry="10"
         x="660"
         y="332.36218"
         id="rect2987-8-5-81-25"
         style="fill:#ffffff;fill-opacity:1;fill-rule:evenodd;stroke:#000000;stroke-width:0.5;stroke-miterlimit:4;stroke-dasharray:none" />
      <rect
         width="50"
         height="80"
         rx="5"
         ry="5"
         x="665"
         y="337.36218"
         id="rect3757-26-33-5-8"
         style="fill:#ffaa00;fill-opacity:1;fill-rule:evenodd;stroke:none" />
      <path
         inkscape:connector-curvature="0"
         d="m 705,352.36217 c -22.09139,0 -40,17.90861 -40,40 0,5.52285 4.47715,10 10,10 22.09139,0 40,-17.90861 40,-40 0,-5.52285 -4.47715,-10 -10,-10 z"
         id="path3773-0-4-8-4-60-3-86-6"
         style="fill:#ffffff;fill-opacity:1;fill-rule:evenodd;stroke:none" />
      <path
         inkscape:connector-curvature="0"
         d="m 690,361.11217 2.5,2.5 -10,10 c -2.5,2.5 -2.5,7.5 0,10 l 5,-5 10,-10 2.5,2.5 v -10 z"
         id="path5973-41"
         style="fill:#ffaa00;stroke:none" />
      <path
         inkscape:connector-curvature="0"
         d="m 690,393.61217 -2.5,-2.5 10,-10 c 2.5,-2.5 2.5,-7.5 0,-10 l -5,5 -10,10 -2.5,-2.5 v 10 z"
         id="path5973-4-6"
         style="fill:#ffaa00;stroke:none" />
      <path
         inkscape:connector-curvature="0"
         d="m 672.5,339.86216 1.25,1.25 -5,5 c -1.25,1.25 -1.25,3.75 0,5 l 2.5,-2.5 5,-5 1.25,1.25 v -5 z"
         id="path5973-6-5"
         style="fill:#ffffff;stroke:none" />
      <path
         inkscape:connector-curvature="0"
         d="m 672.5,356.11216 -1.25,-1.25 5,-5 c 1.25,-1.25 1.25,-3.75 0,-5 l -2.5,2.5 -5,5 -1.25,-1.25 v 5 z"
         id="path5973-4-3-5"
         style="fill:#ffffff;stroke:none" />
      <path
         inkscape:connector-curvature="0"
         d="m 707.5,398.61216 1.25,1.25 -5,5 c -1.25,1.25 -1.25,3.75 0,5 l 2.5,-2.5 5,-5 1.25,1.25 v -5 z"
         id="path5973-6-5-2"
         style="fill:#ffffff;stroke:none" />
      <path
         inkscape:connector-curvature="0"
         d="m 707.5,414.86216 -1.25,-1.25 5,-5 c 1.25,-1.25 1.25,-3.75 0,-5 l -2.5,2.5 -5,5 -1.25,-1.25 v 5 z"
         id="path5973-4-3-5-8"
         style="fill:#ffffff;stroke:none" />
    </g>
  </g>
</svg>
