<?xml version="1.0" encoding="UTF-8" standalone="no"?>
<!-- Created with Inkscape (http://www.inkscape.org/) -->

<svg
   xmlns:dc="http://purl.org/dc/elements/1.1/"
   xmlns:cc="http://creativecommons.org/ns#"
   xmlns:rdf="http://www.w3.org/1999/02/22-rdf-syntax-ns#"
   xmlns:svg="http://www.w3.org/2000/svg"
   xmlns="http://www.w3.org/2000/svg"
   xmlns:sodipodi="http://sodipodi.sourceforge.net/DTD/sodipodi-0.dtd"
   xmlns:inkscape="http://www.inkscape.org/namespaces/inkscape"
   width="210mm"
   height="297mm"
   viewBox="0 0 210 297"
   version="1.1"
   id="svg4920"
   inkscape:version="0.92.0 r15299"
   sodipodi:docname="six_red.svg">
  <defs
     id="defs4914" />
  <sodipodi:namedview
     id="base"
     pagecolor="#ffffff"
     bordercolor="#666666"
     borderopacity="1.0"
     inkscape:pageopacity="0.0"
     inkscape:pageshadow="2"
     inkscape:zoom="0.35"
     inkscape:cx="400"
     inkscape:cy="560"
     inkscape:document-units="mm"
     inkscape:current-layer="layer1"
     showgrid="false"
     inkscape:window-width="1368"
     inkscape:window-height="849"
     inkscape:window-x="-8"
     inkscape:window-y="-8"
     inkscape:window-maximized="1" />
  <metadata
     id="metadata4917">
    <rdf:RDF>
      <cc:Work
         rdf:about="">
        <dc:format>image/svg+xml</dc:format>
        <dc:type
           rdf:resource="http://purl.org/dc/dcmitype/StillImage" />
        <dc:title></dc:title>
      </cc:Work>
    </rdf:RDF>
  </metadata>
  <g
     inkscape:label="Livello 1"
     inkscape:groupmode="layer"
     id="layer1">
    <g
       transform="matrix(3.4957097,0,0,3.2964122,-1257.8714,-1095.108)"
       id="g6603">
      <rect
         width="60"
         height="90"
         rx="10"
         ry="10"
         x="360"
         y="332.36218"
         id="rect2987-8-5-7"
         style="fill:#ffffff;fill-opacity:1;fill-rule:evenodd;stroke:#000000;stroke-width:0.5;stroke-miterlimit:4;stroke-dasharray:none" />
      <rect
         width="50"
         height="80"
         rx="5"
         ry="5"
         x="365"
         y="337.36218"
         id="rect3757-26-33-2"
         style="fill:#55aa55;fill-opacity:1;fill-rule:evenodd;stroke:none" />
      <path
         inkscape:connector-curvature="0"
         d="m 405,352.36217 c -22.09139,0 -40,17.90861 -40,40 0,5.52285 4.47715,10 10,10 22.09139,0 40,-17.90861 40,-40 0,-5.52285 -4.47715,-10 -10,-10 z"
         id="path3773-0-4-8-4-60-3-2"
         style="fill:#ffffff;fill-opacity:1;fill-rule:evenodd;stroke:none" />
      <path
         inkscape:connector-curvature="0"
         d="m 390,362.36217 c -5.52285,0 -10,4.47715 -10,10 v 10 c 0,5.52285 4.47715,10 10,10 5.52285,0 10,-4.47715 10,-10 0,-5.52285 -4.47715,-10 -10,-10 -1.817,0 -3.53157,0.49674 -5,1.34375 v -1.34375 c 0,-2.76142 2.23858,-5 5,-5 1.95426,0 3.6151,1.14704 4.4375,2.78125 l 4.5,-2.25 c -1.63927,-3.28436 -5.01726,-5.53125 -8.9375,-5.53125 z m 0,15 c 2.76142,0 5,2.23858 5,5 0,2.76142 -2.23858,5 -5,5 -2.76142,0 -5,-2.23858 -5,-5 0,-2.76142 2.23858,-5 5,-5 z m -5,16 v 2 h 10 v -2 z"
         id="path3962-5-6-2"
         style="fill:#55aa55;fill-opacity:1;fill-rule:evenodd;stroke:none" />
      <path
         inkscape:connector-curvature="0"
         d="m 372.5,339.86217 c -2.76143,0 -5,2.23859 -5,5.00001 v 4.99998 c 0,2.76143 2.23857,5.00001 5,5.00001 2.76142,0 5,-2.23858 5,-5.00001 0,-2.76141 -2.23858,-4.99998 -5,-4.99998 -0.9085,0 -1.76579,0.24837 -2.5,0.67187 v -0.67187 c 0,-1.38071 1.11929,-2.5 2.5,-2.5 0.97712,0 1.80755,0.57351 2.21874,1.39062 l 2.25,-1.125 c -0.81962,-1.64218 -2.50862,-2.76563 -4.46874,-2.76563 z m 0,7.5 c 1.3807,0 2.49999,1.11928 2.49999,2.49999 0,1.38071 -1.11929,2.50001 -2.49999,2.50001 -1.38071,0 -2.5,-1.1193 -2.5,-2.50001 0,-1.38071 1.11929,-2.49999 2.5,-2.49999 z"
         id="path3962-5-6-2-1"
         style="fill:#ffffff;fill-opacity:1;fill-rule:evenodd;stroke:none" />
      <path
         inkscape:connector-curvature="0"
         d="m 407.5,414.86217 c 2.76143,0 5,-2.23859 5,-5.00001 v -4.99998 c 0,-2.76143 -2.23857,-5.00001 -5,-5.00001 -2.76142,0 -5,2.23858 -5,5.00001 0,2.76141 2.23858,4.99998 5,4.99998 0.9085,0 1.76579,-0.24837 2.5,-0.67187 v 0.67187 c 0,1.38071 -1.11929,2.5 -2.5,2.5 -0.97712,0 -1.80755,-0.57351 -2.21874,-1.39062 l -2.25,1.125 c 0.81962,1.64218 2.50862,2.76563 4.46874,2.76563 z m 0,-7.5 c -1.3807,0 -2.49999,-1.11928 -2.49999,-2.49999 0,-1.38071 1.11929,-2.50001 2.49999,-2.50001 1.38071,0 2.5,1.1193 2.5,2.50001 0,1.38071 -1.11929,2.49999 -2.5,2.49999 z"
         id="path3962-5-6-2-1-8"
         style="fill:#ffffff;fill-opacity:1;fill-rule:evenodd;stroke:none" />
    </g>
  </g>
</svg>
