<?xml version="1.0" encoding="UTF-8" standalone="no"?>
<!-- Created with Inkscape (http://www.inkscape.org/) -->

<svg
   xmlns:dc="http://purl.org/dc/elements/1.1/"
   xmlns:cc="http://creativecommons.org/ns#"
   xmlns:rdf="http://www.w3.org/1999/02/22-rdf-syntax-ns#"
   xmlns:svg="http://www.w3.org/2000/svg"
   xmlns="http://www.w3.org/2000/svg"
   xmlns:sodipodi="http://sodipodi.sourceforge.net/DTD/sodipodi-0.dtd"
   xmlns:inkscape="http://www.inkscape.org/namespaces/inkscape"
   width="210mm"
   height="297mm"
   viewBox="0 0 210 297"
   version="1.1"
   id="svg4756"
   inkscape:version="0.92.0 r15299"
   sodipodi:docname="two_red.svg">
  <defs
     id="defs4750" />
  <sodipodi:namedview
     id="base"
     pagecolor="#ffffff"
     bordercolor="#666666"
     borderopacity="1.0"
     inkscape:pageopacity="0.0"
     inkscape:pageshadow="2"
     inkscape:zoom="0.35"
     inkscape:cx="400"
     inkscape:cy="560"
     inkscape:document-units="mm"
     inkscape:current-layer="layer1"
     showgrid="false"
     inkscape:window-width="1368"
     inkscape:window-height="849"
     inkscape:window-x="-8"
     inkscape:window-y="-8"
     inkscape:window-maximized="1" />
  <metadata
     id="metadata4753">
    <rdf:RDF>
      <cc:Work
         rdf:about="">
        <dc:format>image/svg+xml</dc:format>
        <dc:type
           rdf:resource="http://purl.org/dc/dcmitype/StillImage" />
        <dc:title></dc:title>
      </cc:Work>
    </rdf:RDF>
  </metadata>
  <g
     inkscape:label="Livello 1"
     inkscape:groupmode="layer"
     id="layer1">
    <g
       transform="matrix(3.4581356,0,0,3.2797624,-413.64297,-1088.825)"
       id="g6571">
      <rect
         width="60"
         height="90"
         rx="10"
         ry="10"
         x="120"
         y="332.36218"
         id="rect2987-8"
         style="fill:#ffffff;fill-opacity:1;fill-rule:evenodd;stroke:#000000;stroke-width:0.5;stroke-miterlimit:4;stroke-dasharray:none" />
      <rect
         width="50"
         height="80"
         rx="5"
         ry="5"
         x="125"
         y="337.36218"
         id="rect3757-26"
         style="fill:#ff5555;fill-opacity:1;fill-rule:evenodd;stroke:none" />
      <path
         inkscape:connector-curvature="0"
         d="m 165,352.36217 c -22.09139,0 -40,17.90861 -40,40 0,5.52285 4.47715,10 10,10 22.09139,0 40,-17.90861 40,-40 0,-5.52285 -4.47715,-10 -10,-10 z"
         id="path3773-0-4-8-4-60"
         style="fill:#ffffff;fill-opacity:1;fill-rule:evenodd;stroke:none" />
      <path
         inkscape:connector-curvature="0"
         d="m 149,362.36218 c -5.54,0 -10,4.45999 -10,9.99999 v 1 h 5 v -1 c 0,-2.77 2.23,-5 5,-5 2.77,0 5,2.23 5,5 0,1.1275 -0.93551,3.34015 -1.91245,4.10902 -5.30481,4.17494 -5.24881,3.48544 -13.08755,8.89098 v 7 h 10 10 v -5 -2 h -5 v 2 h -5 -4 c 6.19007,-4.35874 6.6427,-4.25311 11.49308,-8.59375 1.55408,-1.39076 2.50692,-4.15105 2.50692,-6.40625 0,-5.54 -4.46,-9.99999 -10,-9.99999 z"
         id="rect3163-52-9-8-1-1-2-7-3-6-5"
         style="fill:#ff5555;fill-opacity:1;stroke:none" />
      <path
         inkscape:connector-curvature="0"
         d="m 132.5,339.86217 c -2.77,0 -5,2.23 -5,5 v 0.5 h 2.5 v -0.5 c 0,-1.385 1.115,-2.5 2.5,-2.5 1.385,0 2.5,1.115 2.5,2.5 0,0.56375 -0.46776,1.67007 -0.95623,2.05451 -2.6524,2.08747 -2.6244,1.74272 -6.54377,4.44549 v 3.5 h 5 5 v -2.5 -1 H 135 v 1 h -2.5 -2 c 3.09503,-2.17937 3.32135,-2.12655 5.74654,-4.29687 0.77704,-0.69538 1.25346,-2.07553 1.25346,-3.20313 0,-2.77 -2.23,-5 -5,-5 z"
         id="rect3163-52-9-8-1-1-2-7-3-6-0-9"
         style="fill:#ffffff;fill-opacity:1;stroke:none" />
      <path
         inkscape:connector-curvature="0"
         d="m 167.5,414.86217 c 2.77,0 5,-2.23 5,-5 v -0.5 H 170 v 0.5 c 0,1.385 -1.115,2.5 -2.5,2.5 -1.385,0 -2.5,-1.115 -2.5,-2.5 0,-0.56375 0.46776,-1.67007 0.95623,-2.05451 2.6524,-2.08747 2.6244,-1.74272 6.54377,-4.44549 v -3.5 h -5 -5 v 2.5 1 h 2.5 v -1 h 2.5 2 c -3.09503,2.17937 -3.32135,2.12655 -5.74654,4.29687 -0.77704,0.69538 -1.25346,2.07553 -1.25346,3.20313 0,2.77 2.23,5 5,5 z"
         id="rect3163-52-9-8-1-1-2-7-3-6-0-4"
         style="fill:#ffffff;fill-opacity:1;stroke:none" />
    </g>
  </g>
</svg>
