<?xml version="1.0" encoding="UTF-8" standalone="no"?>
<!-- Created with Inkscape (http://www.inkscape.org/) -->

<svg
   xmlns:dc="http://purl.org/dc/elements/1.1/"
   xmlns:cc="http://creativecommons.org/ns#"
   xmlns:rdf="http://www.w3.org/1999/02/22-rdf-syntax-ns#"
   xmlns:svg="http://www.w3.org/2000/svg"
   xmlns="http://www.w3.org/2000/svg"
   xmlns:sodipodi="http://sodipodi.sourceforge.net/DTD/sodipodi-0.dtd"
   xmlns:inkscape="http://www.inkscape.org/namespaces/inkscape"
   width="210mm"
   height="297mm"
   viewBox="0 0 210 297"
   version="1.1"
   id="svg4674"
   inkscape:version="0.92.0 r15299"
   sodipodi:docname="zero_red.svg">
  <defs
     id="defs4668" />
  <sodipodi:namedview
     id="base"
     pagecolor="#ffffff"
     bordercolor="#666666"
     borderopacity="1.0"
     inkscape:pageopacity="0.0"
     inkscape:pageshadow="2"
     inkscape:zoom="0.35"
     inkscape:cx="400"
     inkscape:cy="560"
     inkscape:document-units="mm"
     inkscape:current-layer="layer1"
     showgrid="false"
     inkscape:window-width="1368"
     inkscape:window-height="849"
     inkscape:window-x="-8"
     inkscape:window-y="-8"
     inkscape:window-maximized="1" />
  <metadata
     id="metadata4671">
    <rdf:RDF>
      <cc:Work
         rdf:about="">
        <dc:format>image/svg+xml</dc:format>
        <dc:type
           rdf:resource="http://purl.org/dc/dcmitype/StillImage" />
        <dc:title></dc:title>
      </cc:Work>
    </rdf:RDF>
  </metadata>
  <g
     inkscape:label="Livello 1"
     inkscape:groupmode="layer"
     id="layer1">
    <g
       transform="matrix(3.4581356,0,0,3.2797624,2.0892645,-1087.3131)"
       id="g6555">
      <rect
         width="60"
         height="90"
         rx="10"
         ry="10"
         x="0"
         y="332.36218"
         id="rect2987-1"
         style="fill:#ffffff;fill-opacity:1;fill-rule:evenodd;stroke:#000000;stroke-width:0.5;stroke-miterlimit:4;stroke-dasharray:none" />
      <rect
         width="50"
         height="80"
         rx="5"
         ry="5"
         x="5"
         y="337.36218"
         id="rect3757-5"
         style="fill:#ffaa00;fill-opacity:1;fill-rule:evenodd;stroke:none" />
      <path
         inkscape:connector-curvature="0"
         d="m 45,352.36216 c -22.09139,0 -40,17.90861 -40,40 0,5.52285 4.47715,10 10,10 22.09139,0 40,-17.90861 40,-40 0,-5.52285 -4.47715,-10 -10,-10 z"
         id="path3773-0-4-8-4-2"
         style="fill:#ffffff;fill-opacity:1;fill-rule:evenodd;stroke:none" />
      <path
         inkscape:connector-curvature="0"
         d="m 30,362.36217 c -5.52285,0 -10,4.47715 -10,10 v 10 c 0,5.52285 4.47715,10 10,10 5.52285,0 10,-4.47715 10,-10 v -10 c 0,-5.52285 -4.47715,-10 -10,-10 z m 0,5 c 2.76142,0 5,2.23858 5,5 v 10 c 0,2.76142 -2.23858,5 -5,5 -2.76142,0 -5,-2.23858 -5,-5 v -10 c 0,-2.76142 2.23858,-5 5,-5 z"
         id="path3962-7"
         style="fill:#ffaa00;fill-opacity:1;fill-rule:evenodd;stroke:none" />
      <path
         inkscape:connector-curvature="0"
         d="m 12.5,339.86217 c -2.76143,0 -5,2.23857 -5,5 v 5 c 0,2.76143 2.23857,5 5,5 2.76142,0 5,-2.23857 5,-5 v -5 c 0,-2.76143 -2.23858,-5 -5,-5 z m 0,2.5 c 1.38071,0 2.5,1.11929 2.5,2.5 v 5 c 0,1.38071 -1.11929,2.5 -2.5,2.5 -1.38071,0 -2.5,-1.11929 -2.5,-2.5 v -5 c 0,-1.38071 1.11929,-2.5 2.5,-2.5 z"
         id="path3962-7-1"
         style="fill:#ffffff;fill-opacity:1;fill-rule:evenodd;stroke:none" />
      <path
         inkscape:connector-curvature="0"
         d="m 47.5,399.86217 c -2.76143,0 -5,2.23857 -5,5 v 5 c 0,2.76143 2.23857,5 5,5 2.76142,0 5,-2.23857 5,-5 v -5 c 0,-2.76143 -2.23858,-5 -5,-5 z m 0,2.5 c 1.38071,0 2.5,1.11929 2.5,2.5 v 5 c 0,1.38071 -1.11929,2.5 -2.5,2.5 -1.38071,0 -2.5,-1.11929 -2.5,-2.5 v -5 c 0,-1.38071 1.11929,-2.5 2.5,-2.5 z"
         id="path3962-7-1-2"
         style="fill:#ffffff;fill-opacity:1;fill-rule:evenodd;stroke:none" />
    </g>
  </g>
</svg>
